<!-- icon666.com - MILLIONS vector ICONS FREE --><svg id="Layer_1" enable-background="new 0 0 511.96 511.96" viewBox="0 0 511.96 511.96" xmlns="http://www.w3.org/2000/svg"><g><path d="m397.939 0h-283.918c-62.669 0-113.654 50.985-113.654 113.654v237.749c0 37.425 30.447 67.872 67.872 67.872h82.192c3.212 23.195 5.711 50.001 5.711 77.268 0 8.284 6.716 15 15 15s15-6.716 15-15c0-6.735-.143-13.423-.4-20.029h26.699v20.446c0 8.284 6.716 15 15 15s15-6.716 15-15v-20.446h27.077v20.446c0 8.284 6.716 15 15 15s15-6.716 15-15v-20.446h25.684c-.301 6.745-.468 13.572-.468 20.446 0 8.284 6.716 15 15 15s15-6.716 15-15c0-27.388 2.857-54.367 6.512-77.685h82.475c37.425 0 67.872-30.447 67.872-67.872v-237.749c0-62.669-50.985-113.654-113.654-113.654zm-214.149 446.514c-.852-9.448-1.888-18.572-3.031-27.239h31.682v27.239zm85.729-87.912v30.673h-27.077v-30.673zm30 0h43.312c-2.028 8.161-4.43 18.578-6.81 30.673h-36.502zm42.556-30h-172.19v-132.223h172.189v132.223zm-171.992 30h42.358v30.673h-36.289c-2.125-12.129-4.267-22.546-6.069-30.673zm72.358 87.912v-27.239h27.077v27.239zm84.977 0h-27.9v-27.239h31.319c-1.287 8.672-2.456 17.795-3.419 27.239zm154.175-95.111c0 20.883-16.989 37.872-37.872 37.872h-77.028c2.663-12.914 5.249-23.464 7.135-30.673h32.277c8.284 0 15-6.716 15-15s-6.716-15-15-15h-34.031v-147.223c0-8.284-6.716-15-15-15h-202.189c-8.284 0-15 6.716-15 15v147.223h-34.031c-8.284 0-15 6.716-15 15s6.716 15 15 15h33.431c1.688 7.277 3.977 17.819 6.325 30.673h-77.371c-20.883 0-37.872-16.989-37.872-37.872v-237.749c0-46.127 37.527-83.654 83.654-83.654h283.918c46.127 0 83.654 37.527 83.654 83.654z" fill="#000000" style="fill: rgb(255, 255, 255);"></path><ellipse cx="101.026" cy="93.64" rx="15.149" ry="15.358" fill="#000000" style="fill: rgb(255, 255, 255);"></ellipse><ellipse cx="405.951" cy="93.64" rx="15.149" ry="15.358" fill="#000000" style="fill: rgb(255, 255, 255);"></ellipse></g></svg>