<!-- icon666.com - MILLIONS vector ICONS FREE --><svg xmlns="http://www.w3.org/2000/svg" id="Line" viewBox="0 0 64 64"><path d="M32,3.5A28.53242,28.53242,0,0,0,3.5,32c1.56567,37.80911,55.4401,37.7981,57.00005-.00021A28.53245,28.53245,0,0,0,32,3.5Zm0,54A25.52913,25.52913,0,0,1,6.5,32c1.401-33.82918,49.60415-33.81933,51.00005.00019A25.52917,25.52917,0,0,1,32,57.5Z" fill="#000000" style="fill: rgb(255, 255, 255);"></path><path d="M43.71826,32.30176a1.469,1.469,0,0,0-.24853-.15869L38.04565,29.3855c1.99115-2.46944,1.8341-7.48409,1.14806-9.62576A5.67231,5.67231,0,0,0,34.04,15.5H29.96973c-6.46544.44878-6.85534,9.66643-4.01616,13.88575l-5.4233,2.75732a5.45524,5.45524,0,0,0-2.38039,4.55711l0,4.82961a5.59817,5.59817,0,0,0,3.83936,5.31445A32.4794,32.4794,0,0,0,32,48.5a32.47308,32.47308,0,0,0,10.01416-1.65723,5.5963,5.5963,0,0,0,3.83594-5.313V36.7002A5.56551,5.56551,0,0,0,43.71826,32.30176ZM27.71338,20.5a2.6858,2.6858,0,0,1,2.32617-2h3.93018c2.96928.4367,2.89687,4.18265,2.50017,7.123a4.69718,4.69718,0,0,1-5.18723,3.95356C27.28442,28.745,26.78378,23.89424,27.71338,20.5ZM42.8501,41.52979a2.599,2.599,0,0,1-1.78076,2.46582A29.43365,29.43365,0,0,1,32,45.5a29.43959,29.43959,0,0,1-9.06592-1.50293,2.60088,2.60088,0,0,1-1.78418-2.46728V36.7002a2.58493,2.58493,0,0,1,.88672-1.958l6.23114-3.16748a6.52,6.52,0,0,0,3.71075,1.02442A6.53366,6.53366,0,0,0,35.733,31.57507l6.2304,3.16712a2.58493,2.58493,0,0,1,.88672,1.958Z" fill="#000000" style="fill: rgb(255, 255, 255);"></path></svg>